<?xml version="1.0" standalone="no"?>
<!DOCTYPE svg PUBLIC "-//W3C//DTD SVG 20010904//EN"
 "http://www.w3.org/TR/2001/REC-SVG-20010904/DTD/svg10.dtd">
<svg version="1.0" xmlns="http://www.w3.org/2000/svg"
 width="1000.000000pt" height="257.000000pt" viewBox="0 0 1000.000000 257.000000"
 preserveAspectRatio="xMidYMid meet">

<g transform="translate(0.000000,257.000000) scale(0.100000,-0.100000)"
fill="#000000" stroke="none">
<path d="M0 1285 l0 -1285 5000 0 5000 0 0 1285 0 1285 -4367 -1 c-2403 -1
-4357 -3 -4343 -5 14 -3 43 -9 65 -15 53 -14 478 -260 468 -270 -4 -4 -258
-159 -563 -344 -317 -192 -574 -355 -598 -378 -24 -23 -58 -69 -75 -102 -30
-56 -32 -67 -32 -165 0 -97 2 -110 30 -163 52 -104 150 -174 273 -197 48 -8
75 -8 134 5 63 13 100 31 262 129 173 105 190 114 210 101 71 -46 169 -17 206
61 47 96 -23 204 -132 204 -71 0 -138 -70 -138 -145 l0 -40 -181 -109 c-196
-118 -254 -141 -334 -131 -152 18 -256 134 -257 286 -1 82 30 154 89 210 28
27 895 561 1163 717 l35 21 185 -108 c214 -125 255 -164 290 -277 19 -63 20
-91 20 -563 0 -556 -2 -574 -67 -669 -20 -29 -55 -66 -77 -81 -46 -31 -797
-466 -866 -501 -60 -31 -180 -39 -248 -17 -49 16 -465 251 -469 265 -2 4 250
160 559 347 354 214 579 356 606 383 24 24 58 73 75 110 29 60 32 76 32 157 0
76 -5 99 -27 147 -32 69 -105 145 -169 176 -93 45 -211 51 -304 14 -22 -9
-119 -64 -215 -122 l-176 -107 -34 19 c-125 66 -264 -79 -190 -199 40 -67 112
-88 182 -54 51 24 79 67 82 124 l2 42 175 107 c226 139 282 157 396 123 204
-61 271 -327 120 -476 -24 -23 -223 -151 -462 -296 -231 -140 -492 -298 -581
-352 l-160 -98 -180 104 c-98 57 -194 118 -212 136 -18 18 -48 61 -65 97 l-32
65 -3 529 c-3 581 -2 594 58 680 46 67 75 88 315 226 127 73 315 183 420 243
210 122 239 136 305 147 25 4 -235 8 -577 9 l-623 1 0 -1285z m8640 440 l0
-75 -85 0 -85 0 0 75 0 75 85 0 85 0 0 -75z m-3046 39 l46 -7 0 -68 0 -69 -92
6 c-51 3 -98 7 -105 9 -6 2 -40 0 -75 -5 -74 -11 -108 -40 -108 -95 0 -61 35
-88 154 -120 199 -53 260 -113 261 -255 0 -135 -57 -222 -169 -255 -51 -16
-321 -21 -385 -9 l-31 6 0 69 0 68 143 -6 c210 -8 267 14 267 105 0 66 -31 91
-157 126 -191 53 -253 113 -253 245 0 89 13 131 58 181 55 62 115 79 273 80
69 0 147 -3 173 -6z m-2239 -293 l170 -285 5 285 5 284 78 3 77 3 0 -431 0
-430 -92 0 -93 1 -180 296 -180 296 -3 -297 -2 -297 -78 3 -77 3 -3 415 c-1
228 0 421 3 428 3 9 30 12 102 10 l97 -3 171 -284z m1435 154 l0 -95 90 0 90
0 0 -60 0 -60 -90 0 -90 0 0 -157 c0 -131 3 -164 18 -192 20 -41 55 -54 118
-42 24 5 46 6 49 3 3 -3 5 -29 5 -58 l0 -53 -42 -12 c-23 -6 -77 -9 -119 -7
-91 4 -120 20 -159 89 -24 42 -25 53 -28 237 l-4 192 -49 0 -49 0 0 59 0 60
47 3 c33 2 48 8 50 18 1 8 5 50 8 93 l7 77 74 0 74 0 0 -95z m4220 0 l0 -95
90 0 90 0 0 -60 0 -60 -91 0 -91 0 4 -162 c3 -107 9 -172 17 -190 18 -36 58
-49 121 -39 l51 8 -3 -61 -3 -60 -40 -9 c-22 -4 -74 -7 -115 -5 -91 4 -127 25
-162 96 -21 43 -23 62 -26 235 l-4 187 -49 0 -49 0 0 60 0 60 49 0 48 0 7 53
c3 28 6 71 6 95 l0 42 75 0 75 0 0 -95z m-4726 -89 c122 -37 175 -113 184
-266 l5 -90 -220 0 -220 0 7 -41 c21 -116 109 -149 305 -114 113 21 106 23
103 -42 l-3 -58 -90 -18 c-61 -12 -125 -16 -200 -15 -99 3 -115 6 -156 30 -92
54 -135 163 -127 323 5 108 31 174 88 230 70 68 212 95 324 61z m1968 -18 c97
-45 138 -126 138 -273 l0 -65 -215 0 -215 0 0 -25 c0 -39 24 -89 54 -113 48
-38 126 -39 324 -5 l33 5 -3 -58 -3 -59 -60 -13 c-33 -7 -112 -16 -176 -19
-93 -4 -126 -2 -166 11 -52 17 -109 68 -136 121 -25 50 -40 151 -34 228 9 122
45 192 130 257 62 46 235 51 329 8z m692 26 l46 -7 0 -62 0 -62 -93 5 c-171 9
-226 -40 -227 -201 0 -90 15 -132 59 -170 28 -23 42 -27 94 -27 34 0 88 6 120
14 l57 13 0 -62 0 -62 -75 -16 c-116 -26 -220 -23 -282 8 -102 51 -148 154
-140 320 9 215 107 312 318 314 42 1 97 -2 123 -5z m1396 -62 l0 -68 -82 -11
c-46 -6 -95 -16 -110 -22 l-28 -11 0 -235 0 -236 -82 3 -83 3 -3 313 -2 312
66 0 c50 0 70 -4 79 -16 10 -15 17 -15 71 4 72 26 88 29 137 31 l37 1 0 -68z
m-1030 -157 c0 -239 6 -266 67 -291 39 -17 91 -14 164 8 l39 11 0 239 0 238
80 0 80 0 0 -315 0 -315 -70 0 c-56 0 -70 3 -70 15 0 19 1 19 -81 -6 -53 -16
-89 -20 -153 -18 -75 4 -89 7 -127 34 -79 56 -84 75 -87 358 l-3 247 81 0 80
0 0 -205z m1328 -107 l-3 -313 -82 -3 -83 -3 0 316 0 315 85 0 85 0 -2 -312z
m869 92 c46 -118 85 -216 87 -217 2 -2 35 96 75 217 l72 220 80 0 c79 0 80 0
73 -22 -38 -125 -249 -700 -269 -734 -51 -87 -112 -114 -256 -114 l-99 0 0 65
0 65 79 0 c90 0 121 16 146 77 15 35 15 36 -111 327 -69 160 -130 301 -135
314 l-9 23 91 -3 91 -3 85 -215z m-8498 14 c27 -35 26 -49 -5 -80 -19 -20 -31
-24 -52 -19 -52 12 -69 68 -32 105 28 28 64 25 89 -6z m584 -5 c23 -32 16 -62
-18 -85 -62 -41 -127 44 -74 97 27 27 66 21 92 -12z"/>
<path d="M4091 1424 c-26 -19 -51 -71 -51 -109 l0 -25 136 0 c120 0 135 2 130
16 -3 9 -6 27 -6 41 0 15 -13 38 -34 59 -31 31 -39 34 -93 34 -38 0 -67 -6
-82 -16z"/>
<path d="M6014 1425 c-26 -18 -54 -74 -54 -109 l0 -26 136 0 136 0 -7 36 c-10
55 -26 84 -56 100 -37 18 -129 18 -155 -1z"/>
</g>
</svg>
